<svg width="216" height="50" viewBox="0 0 216 50" fill="none" xmlns="http://www.w3.org/2000/svg"><g clip-path="url(#clip0)"><path d="M207.302 41.2984C193.719 41.2984 183.637 40.2048 177.058 38.0176C170.379 35.7829 166.292 33.6199 164.793 31.5264C163.295 29.5288 162.513 27.9369 162.447 26.7474C162.479 31.4085 164.613 35.4974 168.848 39.0153C173.051 42.4869 178.604 45.1978 185.51 47.1469C192.318 49.0497 199.76 50 207.839 50H215.999V41.2984H207.302ZM171.291 26.7474C184.256 26.7474 193.995 27.6988 200.511 29.6005C207.123 31.5507 211.357 33.5483 213.215 35.5922C215.006 37.732 215.934 39.6348 216 41.2984C216 34.7367 213.997 29.768 209.99 26.3913C205.853 22.9671 200.641 20.7336 194.354 19.6862C188.1 18.6411 180.234 18.1175 170.755 18.1175H167.97C161.097 18.1175 155.787 17.951 152.042 17.6181C148.068 17.2862 145.071 16.4296 143.052 15.0505C141.064 13.7198 139.81 12.4112 139.289 11.128C138.866 10.1292 138.621 9.34537 138.557 8.7743H147.205C156.162 8.7743 161.553 8.79856 163.378 8.84596C163.638 8.89337 164.338 8.91762 165.479 8.91762C170.073 8.96503 173.574 9.6783 175.984 11.0575C178.329 12.3892 179.86 13.7683 180.578 15.1949C181.228 16.5741 181.555 17.5486 181.555 18.1197C181.555 12.7949 180.545 8.80076 178.525 6.13617C176.538 3.616 173.769 1.95242 170.219 1.14323C166.764 0.381444 161.927 0 155.705 0L138.505 0.0716585V8.7732C138.57 13.5765 139.629 17.2609 141.681 19.8285C143.765 22.4919 146.551 24.2988 150.037 25.2491C153.392 26.1531 157.529 26.6525 162.447 26.7474H171.291ZM107.484 45.0787C114.488 48.3595 122.191 50 130.595 50H153.796V41.369H130.059C116.508 41.369 106.378 38.9205 99.6678 34.0223C92.8924 29.1253 88.6735 24.2503 87.0125 19.4007C85.383 14.8355 84.5367 11.2934 84.4722 8.7732C84.5367 17.2851 86.6226 24.6329 90.7267 30.8131C94.8942 37.1378 100.48 41.8937 107.484 45.0787ZM139.879 0.0716585H84.4711V8.7732H139.88V0.0716585H139.879ZM44.5612 29.886C44.5284 30.1241 44.5121 30.4571 44.5121 30.8848C44.5121 30.4571 44.5284 30.1241 44.5612 29.886ZM87.9986 41.2984H72.3149V8.70154H87.8042V0.0716585H69.2362C63.0145 0.0716585 58.1448 1.04621 54.6271 2.99532C51.1739 4.99294 48.6817 8.17899 47.1517 12.5535C45.7177 16.6435 44.855 22.4214 44.5623 29.886C44.6595 28.3646 45.0177 26.2016 45.6369 23.3948C46.3533 20.2562 48.389 17.0238 51.7451 13.6945C55.0345 10.4136 60.0516 8.7732 66.7943 8.7732L71.2403 8.70154V41.2984H54.4797V50H87.9986V41.2984ZM34.6918 3.06698C31.1403 1.06936 26.1723 0.0716585 19.789 0.0716585H0V8.70265H15.8312V41.2995H0.195487V50.0011H32.5906V41.2995H16.9058V8.70154L22.232 8.7732C28.9747 8.7732 34.0071 10.4136 37.3304 13.6945C40.6526 17.0238 42.6719 20.2562 43.3894 23.3948C44.1386 26.6757 44.5131 29.1727 44.5131 30.8837C44.5131 23.0862 43.764 16.9996 42.2656 12.624C40.7334 8.20214 38.2095 5.0172 34.6918 3.06698Z" fill="white" fill-opacity="0.92"></path></g><defs><clipPath id="clip0"><rect width="216" height="50" fill="white"></rect></clipPath></defs></svg>



<svg width="282" height="27" fill="none" style="top:20px" class="styles-module--logo--1x0tv"><path d="M8.785 6.636h1.7v15h-1.52v-11.09l-2.417 7.09h-1.61l-2.417-7.09v11.181H1v-15h1.7l3.132 9.091 2.953-9.182zM23.103 17.546c0 3.272-2.237 4.363-4.295 4.363-2.059 0-4.296-1.09-4.296-4.363v-2.91c0-3.272 2.237-4.363 4.296-4.363 2.058 0 4.295 1.09 4.295 4.363v2.91zm-1.61-2.91c0-1.818-1.254-2.727-2.685-2.727-1.432 0-2.685.91-2.685 2.727v3c0 1.819 1.253 2.728 2.685 2.728 1.431 0 2.684-.91 2.684-2.728v-3zM34.2 13.818c-.18-1.272-1.075-2-2.417-2-1.163 0-2.058.636-2.058 1.636 0 .91.626 1.364 1.521 1.546l2.058.546c1.611.363 2.774 1.272 2.774 3.272 0 2.182-1.61 3.091-3.848 3.091-2.237 0-4.205-1.09-4.384-3.727h1.61c.18 1.545 1.253 2.182 2.774 2.182 1.522 0 2.238-.637 2.238-1.546 0-.727-.358-1.364-1.522-1.636l-2.147-.546c-1.164-.272-2.685-1.09-2.685-3.09 0-2 1.7-3.182 3.669-3.182 2.237 0 3.848 1.09 4.027 3.545H34.2v-.09zM49.412 14.09H47.8c-.18-1.454-1.342-2.272-2.595-2.272-1.432 0-2.685.91-2.685 2.727v3c0 1.819 1.253 2.728 2.685 2.728 1.253 0 2.416-.727 2.595-2.273h1.61c-.268 2.818-2.326 3.818-4.205 3.818-2.058 0-4.296-1.09-4.296-4.363v-2.91c0-3.272 2.238-4.363 4.296-4.363 1.879.09 3.937 1.09 4.206 3.909zM62.566 17.546c0 3.272-2.237 4.363-4.295 4.363-2.059 0-4.296-1.09-4.296-4.363v-2.91c0-3.272 2.237-4.363 4.296-4.363 2.058 0 4.295 1.09 4.295 4.363v2.91zm-1.61-2.91c0-1.818-1.254-2.727-2.685-2.727-1.432 0-2.685.91-2.685 2.727v3c0 1.819 1.253 2.728 2.685 2.728 1.431 0 2.684-.91 2.684-2.728v-3zM74.02 18.636l1.163-8h1.522l-1.79 11.091h-1.432l-2.237-7.273-2.237 7.273h-1.432l-1.79-11.09h1.522l1.163 8 1.88-6.273h1.52l2.148 6.272zM103.819 11.09h-1.611c-.179-2-1.432-3-3.132-3-1.79 0-3.132 1.183-3.132 3.456v5.272c0 2.273 1.432 3.455 3.132 3.455 1.611 0 2.953-1 3.132-3h1.611c-.179 2.909-2.058 4.636-4.743 4.636-2.863 0-4.743-1.909-4.743-5.09v-5.273c0-3.182 1.969-5.091 4.743-5.091 2.685 0 4.564 1.727 4.743 4.636zM116.615 17.546c0 3.272-2.237 4.363-4.295 4.363s-4.295-1.09-4.295-4.363v-2.91c0-3.272 2.237-4.363 4.295-4.363s4.295 1.09 4.295 4.363v2.91zm-1.611-2.91c0-1.818-1.252-2.727-2.684-2.727-1.432 0-2.685.91-2.685 2.727v3c0 1.819 1.253 2.728 2.685 2.728 1.432 0 2.684-.91 2.684-2.728v-3zM121.268 17.546v-2.91c0-3.272 2.238-4.363 4.296-4.363.984 0 2.147.454 2.684 1.363v-5h1.611v15h-1.611v-1.09c-.537.909-1.7 1.363-2.684 1.363-2.058 0-4.296-1.09-4.296-4.363zm1.611 0c0 1.818 1.253 2.727 2.685 2.727 1.432 0 2.684-.91 2.684-2.727v-3c0-1.819-1.252-2.728-2.684-2.728-1.432 0-2.685.91-2.685 2.727v3zM135.228 10.636h4.385v9.546h3.848v1.545h-9.217v-1.545h3.848v-8h-2.774v-1.546h-.09zm2.237-4h2.327V9h-2.327V6.636zM156.257 14.636v7h-1.61v-7.09c0-1.819-1.253-2.728-2.685-2.728-1.432 0-2.685.91-2.685 2.727v7.091h-1.61v-11.09h1.61v1.09c.537-.909 1.701-1.363 2.685-1.363 2.058 0 4.295 1.09 4.295 4.363zM167.98 21.546V20.09c-.537.909-1.7 1.363-2.685 1.363-2.058 0-4.295-1.09-4.295-4.363v-2.455c0-3.272 2.237-4.363 4.295-4.363.985 0 2.148.454 2.685 1.363v-1.09h1.611v10.909c0 3.272-2.238 4.363-4.296 4.363-1.879 0-4.027-.909-4.206-3.818h1.611c.179 1.455 1.343 2.273 2.595 2.273 1.343 0 2.685-.91 2.685-2.727zm-5.369-4.364c0 1.818 1.253 2.727 2.684 2.727 1.432 0 2.685-.909 2.685-2.727v-2.546c0-1.818-1.253-2.727-2.685-2.727-1.431 0-2.684.91-2.684 2.727v2.546zM187.04 17.273h1.7c.269 1.909 1.522 3 3.132 3 1.701 0 2.864-.818 2.864-2.364 0-1.363-.716-2.182-2.416-2.636l-1.879-.546c-2.237-.636-3.132-2.454-3.132-4.273 0-2.545 1.968-4 4.385-4 2.595 0 4.116 1.455 4.474 4h-1.7c-.358-1.454-1.164-2.363-2.774-2.363-1.79 0-2.685 1.09-2.685 2.364 0 1.363.716 2.272 2.237 2.636l1.7.455c2.058.636 3.401 1.909 3.401 4.272 0 2.364-1.521 4-4.475 4-2.774.091-4.653-1.727-4.832-4.545zM209.233 14.09h-1.611c-.179-1.454-1.342-2.272-2.595-2.272-1.432 0-2.685.91-2.685 2.727v3c0 1.819 1.253 2.728 2.685 2.728 1.253 0 2.416-.727 2.595-2.273h1.611c-.269 2.818-2.327 3.818-4.206 3.818-2.058 0-4.295-1.09-4.295-4.363v-2.91c0-3.272 2.237-4.363 4.295-4.363 1.879.09 4.027 1.09 4.206 3.909zM222.655 14.636v7h-1.61v-7.09c0-1.819-1.253-2.728-2.685-2.728-1.432 0-2.684.91-2.684 2.727v7.091h-1.611v-15h1.611v5c.537-.909 1.7-1.363 2.684-1.363 2.058 0 4.295 1.09 4.295 4.363zM235.989 17.546c0 3.272-2.237 4.363-4.295 4.363-2.059 0-4.296-1.09-4.296-4.363v-2.91c0-3.272 2.237-4.363 4.296-4.363 2.058 0 4.295 1.09 4.295 4.363v2.91zm-1.611-2.91c0-1.818-1.253-2.727-2.684-2.727-1.432 0-2.685.91-2.685 2.727v3c0 1.819 1.253 2.728 2.685 2.728 1.431 0 2.684-.91 2.684-2.728v-3zM249.322 17.546c0 3.272-2.237 4.363-4.295 4.363s-4.295-1.09-4.295-4.363v-2.91c0-3.272 2.237-4.363 4.295-4.363s4.295 1.09 4.295 4.363v2.91zm-1.611-2.91c0-1.818-1.252-2.727-2.684-2.727-1.432 0-2.685.91-2.685 2.727v3c0 1.819 1.253 2.728 2.685 2.728 1.432 0 2.684-.91 2.684-2.728v-3zM254.87 6.636h4.385v13.455h3.848v1.545h-9.217v-1.545h3.848V8.18h-2.774V6.637h-.09zM281 1h-13.512v25H281V1z" fill="#fff"></path><path d="M8.785 6.636h1.7v15h-1.52v-11.09l-2.417 7.09h-1.61l-2.417-7.09v11.181H1v-15h1.7l3.132 9.091 2.953-9.182zM23.103 17.546c0 3.272-2.237 4.363-4.295 4.363-2.059 0-4.296-1.09-4.296-4.363v-2.91c0-3.272 2.237-4.363 4.296-4.363 2.058 0 4.295 1.09 4.295 4.363v2.91zm-1.61-2.91c0-1.818-1.254-2.727-2.685-2.727-1.432 0-2.685.91-2.685 2.727v3c0 1.819 1.253 2.728 2.685 2.728 1.431 0 2.684-.91 2.684-2.728v-3zM34.2 13.818c-.18-1.272-1.075-2-2.417-2-1.163 0-2.058.636-2.058 1.636 0 .91.626 1.364 1.521 1.546l2.058.546c1.611.363 2.774 1.272 2.774 3.272 0 2.182-1.61 3.091-3.848 3.091-2.237 0-4.205-1.09-4.384-3.727h1.61c.18 1.545 1.253 2.182 2.774 2.182 1.522 0 2.238-.637 2.238-1.546 0-.727-.358-1.364-1.522-1.636l-2.147-.546c-1.164-.272-2.685-1.09-2.685-3.09 0-2 1.7-3.182 3.669-3.182 2.237 0 3.848 1.09 4.027 3.545H34.2v-.09zM49.412 14.09H47.8c-.18-1.454-1.342-2.272-2.595-2.272-1.432 0-2.685.91-2.685 2.727v3c0 1.819 1.253 2.728 2.685 2.728 1.253 0 2.416-.727 2.595-2.273h1.61c-.268 2.818-2.326 3.818-4.205 3.818-2.058 0-4.296-1.09-4.296-4.363v-2.91c0-3.272 2.238-4.363 4.296-4.363 1.879.09 3.937 1.09 4.206 3.909zM62.566 17.546c0 3.272-2.237 4.363-4.295 4.363-2.059 0-4.296-1.09-4.296-4.363v-2.91c0-3.272 2.237-4.363 4.296-4.363 2.058 0 4.295 1.09 4.295 4.363v2.91zm-1.61-2.91c0-1.818-1.254-2.727-2.685-2.727-1.432 0-2.685.91-2.685 2.727v3c0 1.819 1.253 2.728 2.685 2.728 1.431 0 2.684-.91 2.684-2.728v-3zM74.02 18.636l1.163-8h1.522l-1.79 11.091h-1.432l-2.237-7.273-2.237 7.273h-1.432l-1.79-11.09h1.522l1.163 8 1.88-6.273h1.52l2.148 6.272zM103.819 11.09h-1.611c-.179-2-1.432-3-3.132-3-1.79 0-3.132 1.183-3.132 3.456v5.272c0 2.273 1.432 3.455 3.132 3.455 1.611 0 2.953-1 3.132-3h1.611c-.179 2.909-2.058 4.636-4.743 4.636-2.863 0-4.743-1.909-4.743-5.09v-5.273c0-3.182 1.969-5.091 4.743-5.091 2.685 0 4.564 1.727 4.743 4.636zM116.615 17.546c0 3.272-2.237 4.363-4.295 4.363s-4.295-1.09-4.295-4.363v-2.91c0-3.272 2.237-4.363 4.295-4.363s4.295 1.09 4.295 4.363v2.91zm-1.611-2.91c0-1.818-1.252-2.727-2.684-2.727-1.432 0-2.685.91-2.685 2.727v3c0 1.819 1.253 2.728 2.685 2.728 1.432 0 2.684-.91 2.684-2.728v-3zM121.268 17.546v-2.91c0-3.272 2.238-4.363 4.296-4.363.984 0 2.147.454 2.684 1.363v-5h1.611v15h-1.611v-1.09c-.537.909-1.7 1.363-2.684 1.363-2.058 0-4.296-1.09-4.296-4.363zm1.611 0c0 1.818 1.253 2.727 2.685 2.727 1.432 0 2.684-.91 2.684-2.727v-3c0-1.819-1.252-2.728-2.684-2.728-1.432 0-2.685.91-2.685 2.727v3zM135.228 10.636h4.385v9.546h3.848v1.545h-9.217v-1.545h3.848v-8h-2.774v-1.546h-.09zm2.237-4h2.327V9h-2.327V6.636zM156.257 14.636v7h-1.61v-7.09c0-1.819-1.253-2.728-2.685-2.728-1.432 0-2.685.91-2.685 2.727v7.091h-1.61v-11.09h1.61v1.09c.537-.909 1.701-1.363 2.685-1.363 2.058 0 4.295 1.09 4.295 4.363zM167.98 21.546V20.09c-.537.909-1.7 1.363-2.685 1.363-2.058 0-4.295-1.09-4.295-4.363v-2.455c0-3.272 2.237-4.363 4.295-4.363.985 0 2.148.454 2.685 1.363v-1.09h1.611v10.909c0 3.272-2.238 4.363-4.296 4.363-1.879 0-4.027-.909-4.206-3.818h1.611c.179 1.455 1.343 2.273 2.595 2.273 1.343 0 2.685-.91 2.685-2.727zm-5.369-4.364c0 1.818 1.253 2.727 2.684 2.727 1.432 0 2.685-.909 2.685-2.727v-2.546c0-1.818-1.253-2.727-2.685-2.727-1.431 0-2.684.91-2.684 2.727v2.546zM187.04 17.273h1.7c.269 1.909 1.522 3 3.132 3 1.701 0 2.864-.818 2.864-2.364 0-1.363-.716-2.182-2.416-2.636l-1.879-.546c-2.237-.636-3.132-2.454-3.132-4.273 0-2.545 1.968-4 4.385-4 2.595 0 4.116 1.455 4.474 4h-1.7c-.358-1.454-1.164-2.363-2.774-2.363-1.79 0-2.685 1.09-2.685 2.364 0 1.363.716 2.272 2.237 2.636l1.7.455c2.058.636 3.401 1.909 3.401 4.272 0 2.364-1.521 4-4.475 4-2.774.091-4.653-1.727-4.832-4.545zM209.233 14.09h-1.611c-.179-1.454-1.342-2.272-2.595-2.272-1.432 0-2.685.91-2.685 2.727v3c0 1.819 1.253 2.728 2.685 2.728 1.253 0 2.416-.727 2.595-2.273h1.611c-.269 2.818-2.327 3.818-4.206 3.818-2.058 0-4.295-1.09-4.295-4.363v-2.91c0-3.272 2.237-4.363 4.295-4.363 1.879.09 4.027 1.09 4.206 3.909zM222.655 14.636v7h-1.61v-7.09c0-1.819-1.253-2.728-2.685-2.728-1.432 0-2.684.91-2.684 2.727v7.091h-1.611v-15h1.611v5c.537-.909 1.7-1.363 2.684-1.363 2.058 0 4.295 1.09 4.295 4.363zM235.989 17.546c0 3.272-2.237 4.363-4.295 4.363-2.059 0-4.296-1.09-4.296-4.363v-2.91c0-3.272 2.237-4.363 4.296-4.363 2.058 0 4.295 1.09 4.295 4.363v2.91zm-1.611-2.91c0-1.818-1.253-2.727-2.684-2.727-1.432 0-2.685.91-2.685 2.727v3c0 1.819 1.253 2.728 2.685 2.728 1.431 0 2.684-.91 2.684-2.728v-3zM249.322 17.546c0 3.272-2.237 4.363-4.295 4.363s-4.295-1.09-4.295-4.363v-2.91c0-3.272 2.237-4.363 4.295-4.363s4.295 1.09 4.295 4.363v2.91zm-1.611-2.91c0-1.818-1.252-2.727-2.684-2.727-1.432 0-2.685.91-2.685 2.727v3c0 1.819 1.253 2.728 2.685 2.728 1.432 0 2.684-.91 2.684-2.728v-3zM254.87 6.636h4.385v13.455h3.848v1.545h-9.217v-1.545h3.848V8.18h-2.774V6.637h-.09zM281 1h-13.512v25H281V1z" stroke="#fff" stroke-width="0.734" stroke-miterlimit="10"></path></svg>